# xmcd CD database file
#
# Track frame offsets:
#	150
#	1180
#	26257
#	51562
#	82037
#	102717
#	119037
#	145032
#	170330
#	197095
#	216812
#	263172
#
# Disc length: 3969 seconds
#
# Revision: 0
# Processed by: cddbd v1.5.1PL0 Copyright (c) Steve Scherf et al.
# Submitted via: CDex 1.51
#
DISCID=aa0f7f0c
DTITLE=Joe Lynn Turner - Spotlight Kid
DYEAR=1994
DGENRE=Hard Rock
TTITLE0=Intro
TTITLE1=Death Alley Driver
TTITLE2=I Surrender
TTITLE3=Day Of The Eagle
TTITLE4=Wishing Well
TTITLE5=Jealous Lover
TTITLE6=Stone Cold
TTITLE7=Street Of Dreams
TTITLE8=Never In My Life
TTITLE9=Can't Happen Here
TTITLE10=Highway Star
TTITLE11=Smoke On The Water
EXTD=YEAR: 1994
EXTT0=
EXTT1=
EXTT2=
EXTT3=
EXTT4=
EXTT5=
EXTT6=
EXTT7=
EXTT8=
EXTT9=
EXTT10=
EXTT11=
PLAYORDER=
